HIERARCHY
ROOT mixamorig:Hips
{
	OFFSET -0.000008 104.274872 1.554316
	CHANNELS 6 Xposition Yposition Zposition Xrotation Yrotation Zrotation
	JOINT mixamorig:Spine
	{
		OFFSET -0.000005 10.181595 0.131519
		CHANNELS 6 Xposition Yposition Zposition Xrotation Yrotation Zrotation
		JOINT mixamorig:Spine1
		{
			OFFSET -0.000000 9.893959 -1.470707
			CHANNELS 6 Xposition Yposition Zposition Xrotation Yrotation Zrotation
			JOINT mixamorig:Spine2
			{
				OFFSET -0.000000 9.220757 -1.370641
				CHANNELS 6 Xposition Yposition Zposition Xrotation Yrotation Zrotation
				JOINT mixamorig:Neck
				{
					OFFSET 0.000001 16.740417 -2.049036
					CHANNELS 6 Xposition Yposition Zposition Xrotation Yrotation Zrotation
					JOINT mixamorig:Head
					{
						OFFSET 0.000000 9.617874 1.685006
						CHANNELS 6 Xposition Yposition Zposition Xrotation Yrotation Zrotation
						JOINT mixamorig:HeadTop_End
						{
							OFFSET 0.000002 22.037354 7.501101
							CHANNELS 6 Xposition Yposition Zposition Xrotation Yrotation Zrotation
							End Site
							{
								OFFSET 0.000168 2310.654297 -282.823242
							}
						}
					}
				}
				JOINT mixamorig:RightShoulder
				{
					OFFSET -4.569970 11.014908 -2.160885
					CHANNELS 6 Xposition Yposition Zposition Xrotation Yrotation Zrotation
					JOINT mixamorig:RightArm
					{
						OFFSET -10.592851 -0.524811 -2.232101
						CHANNELS 6 Xposition Yposition Zposition Xrotation Yrotation Zrotation
						JOINT mixamorig:RightForeArm
						{
							OFFSET -27.841511 0.000031 -0.000004
							CHANNELS 6 Xposition Yposition Zposition Xrotation Yrotation Zrotation
							JOINT mixamorig:RightHand
							{
								OFFSET -28.328831 -0.000015 0.000015
								CHANNELS 6 Xposition Yposition Zposition Xrotation Yrotation Zrotation
								JOINT mixamorig:RightHandThumb1
								{
									OFFSET -2.464806 -1.573990 2.681852
									CHANNELS 6 Xposition Yposition Zposition Xrotation Yrotation Zrotation
									JOINT mixamorig:RightHandThumb2
									{
										OFFSET -3.215179 -1.872803 1.924282
										CHANNELS 6 Xposition Yposition Zposition Xrotation Yrotation Zrotation
										JOINT mixamorig:RightHandThumb3
										{
											OFFSET -2.654831 -1.527969 1.512609
											CHANNELS 6 Xposition Yposition Zposition Xrotation Yrotation Zrotation
											JOINT mixamorig:RightHandThumb4
											{
												OFFSET -2.018814 -1.152008 1.108052
												CHANNELS 6 Xposition Yposition Zposition Xrotation Yrotation Zrotation
												End Site
												{
													OFFSET -188.809540 -114.533607 132.431396
												}
											}
										}
									}
								}
								JOINT mixamorig:RightHandIndex1
								{
									OFFSET -9.108284 -0.517868 2.259835
									CHANNELS 6 Xposition Yposition Zposition Xrotation Yrotation Zrotation
									JOINT mixamorig:RightHandIndex2
									{
										OFFSET -3.699989 0.000000 0.001215
										CHANNELS 6 Xposition Yposition Zposition Xrotation Yrotation Zrotation
										JOINT mixamorig:RightHandIndex3
										{
											OFFSET -2.850006 0.000031 -0.000522
											CHANNELS 6 Xposition Yposition Zposition Xrotation Yrotation Zrotation
											JOINT mixamorig:RightHandIndex4
											{
												OFFSET -2.772186 -0.000015 -0.000020
												CHANNELS 6 Xposition Yposition Zposition Xrotation Yrotation Zrotation
												End Site
												{
													OFFSET -277.218445 0.000000 -0.050231
												}
											}
										}
									}
								}
								JOINT mixamorig:RightHandMiddle1
								{
									OFFSET -9.532516 -0.000031 -0.000023
									CHANNELS 6 Xposition Yposition Zposition Xrotation Yrotation Zrotation
									JOINT mixamorig:RightHandMiddle2
									{
										OFFSET -3.700005 -0.000015 0.003713
										CHANNELS 6 Xposition Yposition Zposition Xrotation Yrotation Zrotation
										JOINT mixamorig:RightHandMiddle3
										{
											OFFSET -2.949974 0.000015 -0.002054
											CHANNELS 6 Xposition Yposition Zposition Xrotation Yrotation Zrotation
											JOINT mixamorig:RightHandMiddle4
											{
												OFFSET -2.946640 0.000000 -0.000156
												CHANNELS 6 Xposition Yposition Zposition Xrotation Yrotation Zrotation
												End Site
												{
													OFFSET -294.664337 0.000000 -0.113670
												}
											}
										}
									}
								}
								JOINT mixamorig:RightHandRing1
								{
									OFFSET -9.103600 -0.043076 -1.865134
									CHANNELS 6 Xposition Yposition Zposition Xrotation Yrotation Zrotation
									JOINT mixamorig:RightHandRing2
									{
										OFFSET -3.379288 0.000000 -0.001055
										CHANNELS 6 Xposition Yposition Zposition Xrotation Yrotation Zrotation
										JOINT mixamorig:RightHandRing3
										{
											OFFSET -2.889687 -0.000015 0.000379
											CHANNELS 6 Xposition Yposition Zposition Xrotation Yrotation Zrotation
											JOINT mixamorig:RightHandRing4
											{
												OFFSET -2.638809 -0.000015 0.000941
												CHANNELS 6 Xposition Yposition Zposition Xrotation Yrotation Zrotation
												End Site
												{
													OFFSET -263.880371 0.000000 0.516020
												}
											}
										}
									}
								}
								JOINT mixamorig:RightHandPinky1
								{
									OFFSET -8.076683 -0.486710 -3.806280
									CHANNELS 6 Xposition Yposition Zposition Xrotation Yrotation Zrotation
									JOINT mixamorig:RightHandPinky2
									{
										OFFSET -3.600014 -0.000015 -0.003747
										CHANNELS 6 Xposition Yposition Zposition Xrotation Yrotation Zrotation
										JOINT mixamorig:RightHandPinky3
										{
											OFFSET -2.099983 0.000000 -0.005739
											CHANNELS 6 Xposition Yposition Zposition Xrotation Yrotation Zrotation
											JOINT mixamorig:RightHandPinky4
											{
												OFFSET -2.115768 -0.000031 -0.003680
												CHANNELS 6 Xposition Yposition Zposition Xrotation Yrotation Zrotation
												End Site
												{
													OFFSET -211.577087 0.000000 -0.350686
												}
											}
										}
									}
								}
							}
						}
					}
				}
				JOINT mixamorig:LeftShoulder
				{
					OFFSET 4.570447 11.014725 -2.160855
					CHANNELS 6 Xposition Yposition Zposition Xrotation Yrotation Zrotation
					JOINT mixamorig:LeftArm
					{
						OFFSET 10.592371 -0.524597 -2.232119
						CHANNELS 6 Xposition Yposition Zposition Xrotation Yrotation Zrotation
						JOINT mixamorig:LeftForeArm
						{
							OFFSET 27.841532 -0.000031 0.000026
							CHANNELS 6 Xposition Yposition Zposition Xrotation Yrotation Zrotation
							JOINT mixamorig:LeftHand
							{
								OFFSET 28.328846 -0.000061 0.000022
								CHANNELS 6 Xposition Yposition Zposition Xrotation Yrotation Zrotation
								JOINT mixamorig:LeftHandThumb1
								{
									OFFSET 2.466141 -1.576172 2.681732
									CHANNELS 6 Xposition Yposition Zposition Xrotation Yrotation Zrotation
									JOINT mixamorig:LeftHandThumb2
									{
										OFFSET 3.217812 -1.872070 1.916482
										CHANNELS 6 Xposition Yposition Zposition Xrotation Yrotation Zrotation
										JOINT mixamorig:LeftHandThumb3
										{
											OFFSET 2.656029 -1.528778 1.514513
											CHANNELS 6 Xposition Yposition Zposition Xrotation Yrotation Zrotation
											JOINT mixamorig:LeftHandThumb4
											{
												OFFSET 2.020889 -1.154053 1.115139
												CHANNELS 6 Xposition Yposition Zposition Xrotation Yrotation Zrotation
												End Site
												{
													OFFSET 190.885437 -115.081749 130.048782
												}
											}
										}
									}
								}
								JOINT mixamorig:LeftHandIndex1
								{
									OFFSET 9.109314 -0.518021 2.259871
									CHANNELS 6 Xposition Yposition Zposition Xrotation Yrotation Zrotation
									JOINT mixamorig:LeftHandIndex2
									{
										OFFSET 3.699989 0.000000 -0.000322
										CHANNELS 6 Xposition Yposition Zposition Xrotation Yrotation Zrotation
										JOINT mixamorig:LeftHandIndex3
										{
											OFFSET 2.850006 0.000000 0.000352
											CHANNELS 6 Xposition Yposition Zposition Xrotation Yrotation Zrotation
											JOINT mixamorig:LeftHandIndex4
											{
												OFFSET 2.774864 -0.000031 -0.000027
												CHANNELS 6 Xposition Yposition Zposition Xrotation Yrotation Zrotation
												End Site
												{
													OFFSET 277.486267 0.000000 -0.009857
												}
											}
										}
									}
								}
								JOINT mixamorig:LeftHandMiddle1
								{
									OFFSET 9.533394 0.000061 0.000044
									CHANNELS 6 Xposition Yposition Zposition Xrotation Yrotation Zrotation
									JOINT mixamorig:LeftHandMiddle2
									{
										OFFSET 3.699989 -0.000015 -0.000231
										CHANNELS 6 Xposition Yposition Zposition Xrotation Yrotation Zrotation
										JOINT mixamorig:LeftHandMiddle3
										{
											OFFSET 2.949997 -0.000015 -0.000059
											CHANNELS 6 Xposition Yposition Zposition Xrotation Yrotation Zrotation
											JOINT mixamorig:LeftHandMiddle4
											{
												OFFSET 2.952896 0.000031 0.000063
												CHANNELS 6 Xposition Yposition Zposition Xrotation Yrotation Zrotation
												End Site
												{
													OFFSET 295.289337 0.000000 0.022810
												}
											}
										}
									}
								}
								JOINT mixamorig:LeftHandRing1
								{
									OFFSET 9.104523 -0.042999 -1.865074
									CHANNELS 6 Xposition Yposition Zposition Xrotation Yrotation Zrotation
									JOINT mixamorig:LeftHandRing2
									{
										OFFSET 3.150009 -0.000031 0.000043
										CHANNELS 6 Xposition Yposition Zposition Xrotation Yrotation Zrotation
										JOINT mixamorig:LeftHandRing3
										{
											OFFSET 2.949982 -0.000015 0.000040
											CHANNELS 6 Xposition Yposition Zposition Xrotation Yrotation Zrotation
											JOINT mixamorig:LeftHandRing4
											{
												OFFSET 2.644348 0.000000 0.000057
												CHANNELS 6 Xposition Yposition Zposition Xrotation Yrotation Zrotation
												End Site
												{
													OFFSET 264.434631 0.000000 0.012105
												}
											}
										}
									}
								}
								JOINT mixamorig:LeftHandPinky1
								{
									OFFSET 8.077789 -0.486847 -3.806259
									CHANNELS 6 Xposition Yposition Zposition Xrotation Yrotation Zrotation
									JOINT mixamorig:LeftHandPinky2
									{
										OFFSET 3.599953 0.000031 0.014727
										CHANNELS 6 Xposition Yposition Zposition Xrotation Yrotation Zrotation
										JOINT mixamorig:LeftHandPinky3
										{
											OFFSET 2.100021 0.000015 0.007705
											CHANNELS 6 Xposition Yposition Zposition Xrotation Yrotation Zrotation
											JOINT mixamorig:LeftHandPinky4
											{
												OFFSET 2.125504 0.000031 0.007517
												CHANNELS 6 Xposition Yposition Zposition Xrotation Yrotation Zrotation
												End Site
												{
													OFFSET 212.550781 0.000000 0.625752
												}
											}
										}
									}
								}
							}
						}
					}
				}
			}
		}
	}
	JOINT mixamorig:RightUpLeg
	{
		OFFSET -8.207787 -6.751648 -1.599560
		CHANNELS 6 Xposition Yposition Zposition Xrotation Yrotation Zrotation
		JOINT mixamorig:RightLeg
		{
			OFFSET -0.000002 -44.370117 0.345942
			CHANNELS 6 Xposition Yposition Zposition Xrotation Yrotation Zrotation
			JOINT mixamorig:RightFoot
			{
				OFFSET 0.000003 -44.423679 -3.043532
				CHANNELS 6 Xposition Yposition Zposition Xrotation Yrotation Zrotation
				JOINT mixamorig:RightToeBase
				{
					OFFSET -0.000002 -8.728671 10.710558
					CHANNELS 6 Xposition Yposition Zposition Xrotation Yrotation Zrotation
					JOINT mixamorig:RightToe_End
					{
						OFFSET -0.000001 -0.000679 9.278119
						CHANNELS 6 Xposition Yposition Zposition Xrotation Yrotation Zrotation
						End Site
						{
							OFFSET 0.000000 -0.067690 927.812134
						}
					}
				}
			}
		}
	}
	JOINT mixamorig:LeftUpLeg
	{
		OFFSET 8.207793 -6.751686 -1.599556
		CHANNELS 6 Xposition Yposition Zposition Xrotation Yrotation Zrotation
		JOINT mixamorig:LeftLeg
		{
			OFFSET -0.000004 -44.370014 0.346954
			CHANNELS 6 Xposition Yposition Zposition Xrotation Yrotation Zrotation
			JOINT mixamorig:LeftFoot
			{
				OFFSET -0.000001 -44.423672 -3.044401
				CHANNELS 6 Xposition Yposition Zposition Xrotation Yrotation Zrotation
				JOINT mixamorig:LeftToeBase
				{
					OFFSET -0.000002 -8.728669 10.710558
					CHANNELS 6 Xposition Yposition Zposition Xrotation Yrotation Zrotation
					JOINT mixamorig:LeftToe_End
					{
						OFFSET -0.000003 -0.000679 9.278133
						CHANNELS 6 Xposition Yposition Zposition Xrotation Yrotation Zrotation
						End Site
						{
							OFFSET 0.000000 -0.068021 927.813477
						}
					}
				}
			}
		}
	}
}
MOTION
Frames: 3
Frame Time: 0.033333
0.000006 104.270477 1.554256 0.000010 0.000003 -0.000113 -0.000005 10.181587 0.131522 0.000001 -0.000003 0.000084 -0.000000 9.893967 -1.470711 0.000001 0.000000 -0.000000 -0.000000 9.220802 -1.370642 0.000000 -0.000000 -0.000000 0.000001 16.740433 -2.049030 0.000000 -0.000000 -0.000000 0.000000 9.617859 1.685014 0.000000 0.000000 0.000000 0.000002 22.037384 7.501101 0.000000 -0.000000 0.000000 -4.569968 11.014880 -2.160881 0.000008 0.000001 -0.000038 -10.592880 -0.524716 -2.231966 75.358454 17.794994 -13.787873 -27.841515 0.000018 0.000556 -51.502553 113.630838 72.822835 -28.328823 0.000020 0.000021 -0.000316 -0.000045 0.000008 -2.464420 -1.573915 2.682345 -33.647820 -150.854809 18.249745 -3.215258 -1.872514 1.924633 152.869947 34.300110 22.938296 -2.654964 -1.527895 1.513071 147.810608 26.459915 -40.057902 -2.018834 -1.151997 1.108070 -0.000004 -0.000001 0.000002 -9.108398 -0.517565 2.260135 97.292548 17.772760 -20.198932 -3.700063 0.000325 0.001484 94.662952 13.601630 -14.718424 -2.850088 0.000375 -0.000277 92.608950 10.428822 -10.911027 -2.772174 -0.000014 -0.000014 -0.000000 0.000002 0.000001 -9.532593 0.000274 0.000238 92.669623 16.234253 -17.146975 -3.700048 0.000342 0.003961 92.537595 10.372198 -10.742397 -2.950045 0.000345 -0.001814 94.111093 10.382043 -11.142824 -2.946635 0.000014 -0.000153 -0.000001 -0.000000 0.000001 -9.103708 -0.042764 -1.864884 93.507359 16.610924 -17.597052 -3.379327 0.000320 -0.000815 93.814363 7.406127 -7.932779 -2.889733 0.000359 0.000651 100.276070 5.601443 -6.759520 -2.638804 -0.000002 0.000938 -0.000003 0.000000 0.000001 -8.076761 -0.486392 -3.806005 90.174787 17.109959 -17.010434 -3.600025 0.000291 -0.003497 93.859237 6.867331 -6.973275 -2.099997 0.000319 -0.005451 97.938875 3.845941 -4.173441 -2.115777 -0.000043 -0.003679 0.000002 0.000003 -0.000003 4.570446 11.014691 -2.160851 -0.000018 0.000010 -0.000021 10.592505 -0.524547 -2.232385 56.122838 -63.964845 36.823377 27.841740 -0.000073 -0.000091 229.463921 -72.433910 244.337669 28.328833 -0.000014 0.000027 0.000019 -0.000090 -0.000000 2.466135 -1.576190 2.681879 96.868256 125.766623 -143.173961 3.217826 -1.871994 1.916531 -91.905612 40.827049 39.635301 2.656055 -1.528756 1.514595 -102.699278 32.776480 43.960539 2.020903 -1.154083 1.115157 0.000003 0.000006 0.000001 9.109196 -0.517751 2.260116 -126.202471 -19.116354 -36.714838 3.699794 0.000286 -0.000119 -142.589365 -22.102449 -59.965871 2.849800 0.000287 0.000558 -143.533161 -25.239338 -68.401148 2.774887 -0.000030 -0.000037 0.000003 0.000001 -0.000000 9.533337 -0.000004 0.000119 175.956465 -17.509531 154.124311 3.700034 0.000295 -0.000361 114.518114 -5.088507 7.902543 2.950006 0.000153 -0.000222 75.792704 0.130773 -0.099876 2.952861 -0.000048 0.000066 -0.000000 -0.000002 -0.000001 9.104565 -0.043037 -1.865004 173.300914 -17.497744 138.367652 3.149947 0.000302 -0.000128 101.342064 12.400098 -15.104180 2.949913 0.000135 -0.000171 57.533880 21.288231 -11.781550 2.644319 0.000030 0.000056 0.000001 -0.000005 -0.000000 8.077754 -0.486910 -3.806190 175.728432 -15.497090 153.335165 3.599885 0.000326 0.014527 105.277257 13.506017 -17.229022 2.099925 0.000122 0.007506 56.872041 26.530036 -14.467307 2.125511 -0.000019 0.007517 0.000000 0.000001 0.000003 -8.207786 -6.751667 -1.599560 -0.077001 -0.000003 0.000080 -0.000002 -44.370110 0.345938 0.153719 -0.000000 -0.000000 0.000000 -44.423679 -3.043532 -0.076700 0.000000 -0.000002 -0.000006 -8.728667 10.710559 -0.000009 -0.000000 -0.000000 -0.000001 -0.000679 9.278123 0.000000 -0.000000 -0.000000 8.207792 -6.751710 -1.599556 -0.074518 -0.000003 0.000081 -0.000002 -44.370014 0.346960 0.148822 0.000002 0.000000 -0.000001 -44.423664 -3.044403 -0.074314 0.000000 -0.000002 -0.000004 -8.728671 10.710558 0.000007 -0.000000 -0.000000 0.000000 -0.000680 9.278137 -0.000000 0.000000 -0.000001 
0.000006 104.270477 1.554256 0.000010 0.000003 -0.000113 -0.000005 10.181587 0.131522 0.000001 -0.000003 0.000084 -0.000000 9.893967 -1.470711 0.000001 0.000000 -0.000000 -0.000000 9.220802 -1.370642 0.000000 -0.000000 -0.000000 0.000001 16.740433 -2.049030 0.000000 -0.000000 -0.000000 0.000000 9.617859 1.685014 0.000000 0.000000 0.000000 0.000002 22.037384 7.501101 0.000000 -0.000000 0.000000 -4.569968 11.014880 -2.160881 0.000008 0.000001 -0.000038 -10.592876 -0.524759 -2.231905 75.304857 27.290137 -21.217535 -27.841515 0.000027 0.000539 -51.465786 110.242313 69.322875 -28.328821 0.000021 0.000024 -0.000321 -0.000046 0.000007 -2.464412 -1.573894 2.682367 -34.281324 -150.991495 17.071942 -3.215256 -1.872537 1.924623 152.330936 34.400849 24.560554 -2.654939 -1.527897 1.513079 148.199764 26.465743 -39.185987 -2.018826 -1.152000 1.108064 -0.000005 -0.000001 0.000002 -9.108393 -0.517570 2.260120 97.413258 17.426411 -19.849228 -3.700064 0.000314 0.001507 94.402497 13.613625 -14.665109 -2.850080 0.000363 -0.000274 91.941579 10.521144 -10.880761 -2.772156 -0.000013 -0.000022 0.000002 0.000000 0.000000 -9.532600 0.000265 0.000242 92.524229 15.795410 -16.645699 -3.700056 0.000330 0.003971 92.505364 10.486710 -10.855806 -2.950044 0.000349 -0.001802 94.185624 10.504060 -11.288368 -2.946631 0.000013 -0.000156 -0.000001 -0.000001 -0.000000 -9.103708 -0.042754 -1.864877 93.327466 16.131428 -17.035928 -3.379333 0.000330 -0.000801 93.775055 7.416477 -7.938394 -2.889756 0.000347 0.000665 100.364685 5.735900 -6.931340 -2.638804 -0.000003 0.000938 -0.000003 -0.000000 0.000001 -8.076748 -0.486397 -3.806026 90.100529 16.567315 -16.445917 -3.600029 0.000285 -0.003501 93.774351 6.538492 -6.613567 -2.100007 0.000338 -0.005468 98.059974 3.605470 -3.906418 -2.115768 -0.000054 -0.003678 0.000000 0.000000 -0.000003 4.570446 11.014691 -2.160851 -0.000018 0.000010 -0.000021 10.592521 -0.524548 -2.232384 61.263272 -66.168195 42.191305 27.841761 -0.000074 -0.000109 223.341312 -74.227538 235.411185 28.328833 -0.000029 0.000016 0.000019 -0.000089 -0.000000 2.466148 -1.576162 2.681864 97.455352 133.040897 -145.519981 3.217837 -1.871999 1.916543 -99.776435 39.097864 44.048030 2.656067 -1.528739 1.514599 -112.899830 31.205509 49.697911 2.020902 -1.154055 1.115144 0.000003 -0.000002 0.000004 9.109115 -0.517742 2.260035 -151.616348 -18.983684 -66.933969 3.700106 0.000230 -0.000389 -229.917445 -17.849735 37.327387 2.850073 0.000192 0.000215 -273.413155 -17.242389 16.257121 2.774881 -0.000030 -0.000027 0.000000 0.000001 -0.000000 9.533308 0.000004 0.000111 178.063455 -13.447627 163.615488 3.700034 0.000273 -0.000360 111.660629 -5.957168 8.762815 2.950042 0.000050 -0.000168 48.615903 -9.687846 4.385518 2.952873 0.000002 0.000066 -0.000001 -0.000003 0.000000 9.104640 -0.042989 -1.865043 172.364646 -12.938826 119.064677 3.149926 0.000296 -0.000169 96.927317 16.107374 -18.149037 2.949975 0.000070 -0.000094 37.558271 9.199326 -3.133562 2.644323 0.000031 0.000055 -0.000000 0.000004 0.000001 8.077864 -0.486820 -3.806215 171.382424 -12.628605 116.317999 3.599854 0.000257 0.014512 87.828385 21.932888 -20.908276 2.099956 0.000054 0.007570 28.098205 18.710564 -4.693768 2.125519 -0.000030 0.007514 0.000003 0.000005 0.000003 -8.207786 -6.751667 -1.599560 -0.077001 -0.000003 0.000080 -0.000002 -44.370110 0.345938 0.153719 -0.000000 -0.000000 0.000000 -44.423679 -3.043532 -0.076700 0.000000 -0.000002 -0.000006 -8.728667 10.710559 -0.000009 -0.000000 -0.000000 -0.000001 -0.000679 9.278123 0.000000 -0.000000 -0.000000 8.207792 -6.751710 -1.599556 -0.074518 -0.000003 0.000081 -0.000002 -44.370014 0.346960 0.148822 0.000002 0.000000 -0.000001 -44.423664 -3.044403 -0.074314 0.000000 -0.000002 -0.000004 -8.728671 10.710558 0.000007 -0.000000 -0.000000 0.000000 -0.000680 9.278137 -0.000000 0.000000 -0.000001 
0.000006 104.270477 1.554256 0.000010 0.000003 -0.000113 -0.000005 10.181587 0.131522 0.000001 -0.000003 0.000084 -0.000000 9.893967 -1.470711 0.000001 0.000000 -0.000000 -0.000000 9.220802 -1.370642 0.000000 -0.000000 -0.000000 0.000001 16.740433 -2.049030 0.000000 -0.000000 -0.000000 0.000000 9.617859 1.685014 0.000000 0.000000 0.000000 0.000002 22.037384 7.501101 0.000000 -0.000000 0.000000 -4.569968 11.014880 -2.160881 0.000008 0.000001 -0.000038 -10.592869 -0.524787 -2.231877 75.363945 33.846231 -26.450101 -27.841507 0.000001 0.000545 -51.251349 107.700363 66.577187 -28.328815 0.000020 0.000032 -0.000316 -0.000043 0.000008 -2.464411 -1.573913 2.682344 -33.929286 -150.307438 17.444892 -3.215233 -1.872499 1.924612 150.243289 34.848103 32.039994 -2.654935 -1.527901 1.513086 149.281202 26.242470 -39.078282 -2.018837 -1.152019 1.108057 -0.000002 -0.000003 0.000000 -9.108401 -0.517582 2.260115 97.988940 17.039609 -19.605588 -3.700058 0.000321 0.001499 94.326921 13.278295 -14.285169 -2.850075 0.000349 -0.000299 91.962589 10.154445 -10.505470 -2.772148 -0.000003 -0.000019 0.000001 -0.000002 -0.000000 -9.532595 0.000275 0.000245 92.811609 15.968052 -16.909542 -3.700061 0.000334 0.003966 92.404782 10.554318 -10.907232 -2.950060 0.000330 -0.001785 94.776839 10.180271 -11.053616 -2.946621 0.000005 -0.000154 -0.000000 -0.000002 0.000002 -9.103717 -0.042761 -1.864869 93.535691 16.699625 -17.699684 -3.379338 0.000338 -0.000815 93.266144 7.329066 -7.775778 -2.889736 0.000351 0.000654 100.222385 5.139154 -6.200162 -2.638806 -0.000018 0.000944 -0.000001 -0.000000 -0.000001 -8.076756 -0.486392 -3.805998 90.782086 17.010842 -17.088720 -3.600033 0.000299 -0.003507 93.299954 6.299080 -6.306750 -2.100020 0.000334 -0.005476 97.515342 2.839014 -2.998025 -2.115782 -0.000024 -0.003677 -0.000002 -0.000002 -0.000004 4.570446 11.014691 -2.160851 -0.000018 0.000010 -0.000021 10.592516 -0.524540 -2.232392 62.389578 -64.532857 41.842132 27.841797 -0.000045 -0.000126 202.148546 -77.096088 207.601687 28.328838 0.000000 0.000024 0.000016 -0.000089 0.000001 2.466159 -1.576142 2.681887 76.734634 130.080966 -130.175127 3.217775 -1.872036 1.916536 -156.523921 48.653678 97.035036 2.655834 -1.528812 1.514633 -209.842713 31.237146 162.723315 2.020891 -1.154068 1.115149 0.000002 -0.000000 0.000003 9.109443 -0.517768 2.259835 -218.410749 -16.952424 46.288742 3.700115 0.000171 -0.000392 -237.810166 -26.330345 45.950589 2.850120 0.000145 0.000316 -238.790298 -34.586695 57.851627 2.774888 -0.000046 -0.000028 -0.000000 -0.000000 -0.000000 9.533504 0.000323 -0.000017 139.788933 -11.076143 29.647553 3.700099 0.000219 -0.000317 128.615290 -16.014813 32.591620 2.950144 0.000152 -0.000138 115.113727 -28.397500 43.412693 2.952872 -0.000015 0.000064 -0.000001 -0.000001 0.000001 9.104654 -0.042737 -1.865120 143.958996 -12.810352 38.082836 3.150072 0.000318 -0.000017 136.092175 -7.143011 17.608142 2.950045 0.000224 -0.000027 125.537306 -13.780685 26.432810 2.644319 0.000029 0.000055 -0.000000 -0.000003 -0.000000 8.077928 -0.486639 -3.806291 145.471158 -16.752630 52.560119 3.599968 0.000397 0.014637 134.984892 -0.511732 2.275492 2.099970 0.000380 0.007587 131.763788 3.466541 -6.899645 2.125510 -0.000017 0.007517 -0.000003 -0.000003 -0.000006 -8.207786 -6.751667 -1.599560 -0.077001 -0.000003 0.000080 -0.000002 -44.370110 0.345938 0.153719 -0.000000 -0.000000 0.000000 -44.423679 -3.043532 -0.076700 0.000000 -0.000002 -0.000006 -8.728667 10.710559 -0.000009 -0.000000 -0.000000 -0.000001 -0.000679 9.278123 0.000000 -0.000000 -0.000000 8.207792 -6.751710 -1.599556 -0.074518 -0.000003 0.000081 -0.000002 -44.370014 0.346960 0.148822 0.000002 0.000000 -0.000001 -44.423664 -3.044403 -0.074314 0.000000 -0.000002 -0.000004 -8.728671 10.710558 0.000007 -0.000000 -0.000000 0.000000 -0.000680 9.278137 -0.000000 0.000000 -0.000001 
